<svg width="512" height="512" viewBox="0 0 612 612" fill="none" xmlns="http://www.w3.org/2000/svg">
<path fill-rule="evenodd" clip-rule="evenodd" d="M464.104 264.405L382.958 260.914C358.703 260.914 330.209 268.532 308.19 289.208C280.396 315.309 277.242 357.988 288.859 385.358C300.48 412.727 333.271 429.726 365.776 422.992C391.455 417.675 406.003 394.205 403.319 372.528C401.045 354.156 390.362 345.278 377.682 345.278C365.002 345.278 359.628 352.173 358.572 359.063C357.517 365.954 359.758 369.807 364.591 374.362C372.099 381.437 358.572 400.496 339.313 389.307C328.84 383.223 321.616 368.342 323.617 349.811C326.339 324.679 346.55 302.003 382.958 301.731C420.15 301.455 446.558 324.514 455.364 359.063C466.395 402.354 443.643 453.804 391.898 481.74C327.546 516.484 218.769 512.856 159.847 450.315C125.223 413.559 113.714 366.487 116.771 323.499C117.798 309.041 119.808 294.415 122.798 279.624C123.815 274.585 120.473 269.69 115.331 268.693C114.723 268.575 114.104 268.516 113.484 268.516H12.6559C5.66608 268.516 0 262.963 0 256.115C0 255.199 0.104715 254.286 0.309916 253.394L31.961 115.494C33.9079 107.006 41.6016 100.975 50.483 100.975H148.829C154.545 100.975 159.558 97.2158 161.044 91.8042L177.984 21.7548C180.221 13.638 187.733 8 196.314 8H349.858C356.847 8 362.513 13.5515 362.513 20.4C362.513 21.3409 362.404 22.278 362.19 23.1951L345.62 93.3764C344.833 96.7127 346.955 100.043 350.36 100.815C350.83 100.921 351.307 100.975 351.785 100.975H500.152C507.141 100.975 512 106.526 512 113.374C512 114.392 511.874 115.406 511.619 116.392L476.935 255.033C475.47 260.746 470.109 264.663 464.104 264.405V264.405Z" fill="#D1D5DB"/>
</svg>
